#N canvas 559 273 2733 1577 12;
#X msg 119 20 devices;
#X msg 119 107 close;
#X obj 43 188 sel 13 10;
#X obj 43 273 list tosymbol;
#X obj 43 297 cyclone/fromsymbol;
#X obj 926 55 abs;
#X obj 926 99 log;
#X floatatom 926 123 5 0 0 0 - - - 0;
#X msg 44 636 connect 127.0.0.1 444;
#X obj 230 707 netsend;
#X floatatom 230 614 5 0 0 0 - - - 0;
#X floatatom 370 614 5 0 0 0 - - - 0;
#X msg 230 636 send SensorA \$1;
#X msg 370 636 send SensorB \$1;
#X floatatom 510 614 5 0 0 0 - - - 0;
#X msg 510 636 send SensorC \$1;
#X obj 119 54 loadbang;
#X text 221 189 Detecte un caractère de changement de ligne;
#X obj 43 229 cyclone/zl group 1000;
#X text 221 276 Petite valse pour passer de l'int en symbol \, puis du symbole au Float;
#X text 221 336 Unpack la liste de Float (si plusieurs capteurs);
#X floatatom 43 414 5 0 0 0 - - - 0;
#X floatatom 131 414 5 0 0 0 - - - 0;
#X floatatom 220 414 5 0 0 0 - - - 0;
#X obj 43 437 s SensorA;
#X obj 131 461 s SensorB;
#X obj 220 437 s SensorC;
#X obj 230 590 r SensorA;
#X obj 370 590 r SensorB;
#X obj 510 590 r SensorC;
#X text 221 221 Groupe les message entre eux (1000 est un chiffre au hasard \, juste une grande valeur pour être sûr de tout grouper);
#X text 220 20 Indiquer le port COM sur lequel la board est branchée;
#X text 220 78 Indiquer le port COM sur lequel la board est branchée;
#X text 220 107 Ferme le flux;
#X text 220 136 Récupère le flux du seriel en Bytes (mettre le même BAUD que la board);
#X obj 926 31 r SensorA;
#X obj 1013 31 r SensorB;
#X obj 1110 41 r SensorC;
#X obj 1013 55 abs;
#X obj 1013 104 log;
#X floatatom 1013 128 5 0 0 0 - - - 0;
#X floatatom 1110 64 5 0 0 0 - - - 0;
#X obj 739 567 *~;
#X obj 837 568 hsl 162 19 0 1 0 0 empty empty empty -2 -10 0 12 #00ff04 #000000 #000000 0 1;
#X obj 739 591 throw~ out_son;
#X obj 721 323 catch~ out_son;
#X obj 721 347 dac~;
#X obj 43 321 unpack f f f;
#X obj 43 144 comport 1 115200;
#X obj 1110 88 change;
#X obj 1110 112 bng 19 250 50 0 empty empty empty 0 -10 0 12 #fcfcfc #000000 #000000;
#X obj 926 77 + 2.72;
#X obj 1013 79 + 2.72;
#X obj 706 196 s A_mod;
#N canvas 240 505 746 638 cloche_1 1;
#X text 35 195 bpm;
#X obj 118 220 loadbang;
#X floatatom 218 304 10 0 0 0 - - - 0;
#X obj 189 343 bng 19 250 50 0 empty empty empty 0 -10 0 12 #fcfcfc #000000 #000000;
#X obj 183 367 /, f 4;
#X floatatom 183 391 5 0 0 0 - - - 0;
#X obj 35 220 loadbang;
#X msg 65 254 60000;
#X obj 35 254 tgl 19 0 empty empty empty 0 -10 0 12 #fcfcfc #000000 #000000 0 1;
#X obj 125 418 metro;
#X obj 125 442 bng 19 250 50 0 empty empty empty 0 -10 0 12 #fcfcfc #000000 #000000;
#X obj 176 625 clone sBells.cl 32;
#X msg 368 576 all 0.95;
#X obj 368 449 loadbang;
#X obj 125 466 int 1;
#X obj 192 504 + 1;
#X floatatom 125 500 5 0 0 0 - - - 0;
#X obj 125 523 % 32;
#X msg 388 498 all 200;
#X obj 176 649 outlet~;
#X msg 118 244 60;
#X obj 218 141 hradio 19 1 0 8 empty empty empty 0 -10 0 12 #fcfcfc #000000 #000000 0;
#X obj 218 209 + 30;
#X obj 218 185 * 30;
#X floatatom 218 277 5 0 0 0 - - - 0;
#X obj 218 31 bng 19 250 50 0 empty empty empty 0 -10 0 12 #fcfcfc #000000 #000000;
#X obj 218 55 int 1;
#X obj 285 93 + 1;
#X floatatom 218 94 5 0 0 0 - - - 0;
#X obj 218 117 % 8;
#X obj 218 8 inlet;
#X obj 250 344 r A_mod;
#X floatatom 250 368 5 0 0 0 - - - 0;
#X obj 250 391 / 7;
#X floatatom 250 463 5 0 0 0 - - - 0;
#X msg 250 486 all \$1;
#X obj 250 439 + 200;
#X obj 250 415 * 300;
#X msg 378 537 all 1.2;
#X floatatom 258 165 5 0 0 0 - - - 0;
#X obj 218 252 + \$1;
#X floatatom 258 212 5 0 0 0 - - - 0;
#X obj 258 188 * 4;
#X obj 148 307 delay 5;
#X connect 1 0 20 0;
#X connect 2 0 4 1;
#X connect 2 0 43 0;
#X connect 3 0 4 0;
#X connect 4 0 5 0;
#X connect 5 0 9 1;
#X connect 6 0 7 0;
#X connect 6 0 8 0;
#X connect 7 0 4 0;
#X connect 8 0 9 0;
#X connect 9 0 10 0;
#X connect 10 0 14 0;
#X connect 11 0 19 0;
#X connect 12 0 11 3;
#X connect 13 0 18 0;
#X connect 13 0 12 0;
#X connect 13 0 38 0;
#X connect 14 0 15 0;
#X connect 14 0 16 0;
#X connect 15 0 14 1;
#X connect 16 0 17 0;
#X connect 17 0 11 0;
#X connect 18 0 11 1;
#X connect 20 0 2 0;
#X connect 21 0 23 0;
#X connect 21 0 39 0;
#X connect 22 0 40 0;
#X connect 23 0 22 0;
#X connect 24 0 2 0;
#X connect 25 0 26 0;
#X connect 26 0 27 0;
#X connect 26 0 28 0;
#X connect 27 0 26 1;
#X connect 28 0 29 0;
#X connect 29 0 21 0;
#X connect 30 0 25 0;
#X connect 31 0 32 0;
#X connect 32 0 33 0;
#X connect 33 0 37 0;
#X connect 34 0 35 0;
#X connect 35 0 11 1;
#X connect 36 0 34 0;
#X connect 37 0 36 0;
#X connect 38 0 11 2;
#X connect 39 0 42 0;
#X connect 40 0 24 0;
#X connect 41 0 40 1;
#X connect 42 0 41 0;
#X connect 43 0 3 0;
#X restore 739 543 pd cloche_1;
#X obj 1029 567 *~;
#X obj 1127 568 hsl 162 19 0 1 0 0 empty empty empty -2 -10 0 12 #00ff04 #000000 #000000 0 1;
#X obj 1029 591 throw~ out_son;
#N canvas 1186 159 746 719 cloche_2 1;
#X text 35 195 bpm;
#X obj 118 220 loadbang;
#X floatatom 218 304 10 0 0 0 - - - 0;
#X obj 183 367 /, f 4;
#X floatatom 183 391 5 0 0 0 - - - 0;
#X obj 35 220 loadbang;
#X msg 65 254 60000;
#X obj 35 254 tgl 19 0 empty empty empty 0 -10 0 12 #fcfcfc #000000 #000000 0 1;
#X obj 125 418 metro;
#X obj 125 442 bng 19 250 50 0 empty empty empty 0 -10 0 12 #fcfcfc #000000 #000000;
#X msg 368 576 all 0.95;
#X obj 368 449 loadbang;
#X obj 125 466 int 1;
#X obj 192 504 + 1;
#X floatatom 125 500 5 0 0 0 - - - 0;
#X obj 125 523 % 32;
#X msg 388 498 all 200;
#X obj 176 649 outlet~;
#X msg 118 244 60;
#X obj 218 211 hradio 19 1 0 8 empty empty empty 0 -10 0 12 #fcfcfc #000000 #000000 0;
#X obj 218 279 + 30;
#X obj 218 255 * 30;
#X obj 218 101 bng 19 250 50 0 empty empty empty 0 -10 0 12 #fcfcfc #000000 #000000;
#X obj 218 125 int 1;
#X obj 285 163 + 1;
#X floatatom 218 164 5 0 0 0 - - - 0;
#X obj 218 187 % 8;
#X obj 218 78 inlet;
#X floatatom 250 368 5 0 0 0 - - - 0;
#X obj 250 391 / 7;
#X floatatom 250 463 5 0 0 0 - - - 0;
#X msg 250 486 all \$1;
#X obj 250 439 + 200;
#X obj 250 415 * 300;
#X msg 378 537 all 1.2;
#X obj 176 625 clone sBells2.cl 32;
#X obj 250 344 r B_mod;
#X obj 118 327 delay 5;
#X obj 118 351 bng 19 250 50 0 empty empty empty 0 -10 0 12 #fcfcfc #000000 #000000;
#X connect 1 0 18 0;
#X connect 2 0 3 1;
#X connect 2 0 37 0;
#X connect 3 0 4 0;
#X connect 4 0 8 1;
#X connect 5 0 6 0;
#X connect 5 0 7 0;
#X connect 6 0 3 0;
#X connect 7 0 8 0;
#X connect 8 0 9 0;
#X connect 9 0 12 0;
#X connect 10 0 35 3;
#X connect 11 0 16 0;
#X connect 11 0 10 0;
#X connect 11 0 34 0;
#X connect 12 0 13 0;
#X connect 12 0 14 0;
#X connect 13 0 12 1;
#X connect 14 0 15 0;
#X connect 15 0 35 0;
#X connect 16 0 35 1;
#X connect 18 0 2 0;
#X connect 19 0 21 0;
#X connect 20 0 2 0;
#X connect 21 0 20 0;
#X connect 22 0 23 0;
#X connect 23 0 24 0;
#X connect 23 0 25 0;
#X connect 24 0 23 1;
#X connect 25 0 26 0;
#X connect 26 0 19 0;
#X connect 27 0 22 0;
#X connect 28 0 29 0;
#X connect 29 0 33 0;
#X connect 30 0 31 0;
#X connect 31 0 35 1;
#X connect 32 0 30 0;
#X connect 33 0 32 0;
#X connect 34 0 35 2;
#X connect 35 0 17 0;
#X connect 36 0 28 0;
#X connect 37 0 38 0;
#X connect 38 0 3 0;
#X restore 1029 543 pd cloche_2;
#X obj 793 201 s B_mod;
#X obj 926 266 / 7;
#X obj 1013 267 / 7;
#X msg 119 78 open 0;
#X connect 0 0 48 0;
#X connect 1 0 48 0;
#X connect 2 0 18 0;
#X connect 2 2 18 0;
#X connect 3 0 4 0;
#X connect 4 0 47 0;
#X connect 5 0 51 0;
#X connect 6 0 7 0;
#X connect 7 0 53 0;
#X connect 7 0 60 0;
#X connect 8 0 9 0;
#X connect 10 0 12 0;
#X connect 11 0 13 0;
#X connect 12 0 9 0;
#X connect 13 0 9 0;
#X connect 14 0 15 0;
#X connect 15 0 9 0;
#X connect 16 0 62 0;
#X connect 18 0 3 0;
#X connect 21 0 24 0;
#X connect 22 0 25 0;
#X connect 23 0 26 0;
#X connect 27 0 10 0;
#X connect 28 0 11 0;
#X connect 29 0 14 0;
#X connect 35 0 5 0;
#X connect 36 0 38 0;
#X connect 37 0 41 0;
#X connect 38 0 52 0;
#X connect 39 0 40 0;
#X connect 40 0 59 0;
#X connect 40 0 61 0;
#X connect 41 0 49 0;
#X connect 42 0 44 0;
#X connect 43 0 42 1;
#X connect 45 0 46 0;
#X connect 45 0 46 1;
#X connect 47 0 21 0;
#X connect 47 1 22 0;
#X connect 47 2 23 0;
#X connect 48 0 2 0;
#X connect 49 0 50 0;
#X connect 50 0 58 0;
#X connect 50 0 54 0;
#X connect 51 0 6 0;
#X connect 52 0 39 0;
#X connect 54 0 42 0;
#X connect 55 0 57 0;
#X connect 56 0 55 1;
#X connect 58 0 55 0;
#X connect 60 0 43 0;
#X connect 61 0 56 0;
#X connect 62 0 48 0;
