#N canvas 459 307 503 465 12;
#X obj 120 295 *~, f 2;
#X floatatom 121 143 5 0 0 0 - - - 0;
#X obj 120 266 osc~;
#X floatatom 170 171 5 0 0 0 - - - 0;
#X obj 170 194 osc~;
#X obj 180 221 *~;
#X floatatom 217 171 5 0 0 0 - - - 0;
#X obj 121 239 +~;
#X floatatom 125 69 5 0 0 0 - - - 0;
#X obj 125 107 +;
#X floatatom 35 100 5 0 0 0 - - - 0;
#X obj 35 120 s ranTone1;
#X obj 165 88 r ranTone1;
#X obj 338 118 vline~;
#X obj 337 148 pow~ 10;
#X obj 35 79 random 50;
#X msg 338 79 1 10 \, 0 6000 10;
#X obj 35 -1 inlet;
#X obj 168 142 *;
#X obj 304 29 inlet;
#X obj 214 29 inlet;
#X obj 218 142 *;
#X obj 120 319 outlet~;
#X obj 125 29 inlet;
#X obj 35 23 bng 19 250 50 0 empty empty empty 0 -10 0 12 #fcfcfc #000000 #000000;
#X connect 0 0 22 0;
#X connect 1 0 7 0;
#X connect 2 0 0 0;
#X connect 3 0 4 0;
#X connect 4 0 5 0;
#X connect 5 0 7 1;
#X connect 6 0 5 1;
#X connect 7 0 2 0;
#X connect 8 0 9 0;
#X connect 9 0 1 0;
#X connect 9 0 18 0;
#X connect 9 0 21 0;
#X connect 10 0 11 0;
#X connect 12 0 9 1;
#X connect 13 0 14 0;
#X connect 14 0 0 1;
#X connect 15 0 10 0;
#X connect 16 0 13 0;
#X connect 17 0 24 0;
#X connect 18 0 3 0;
#X connect 19 0 21 1;
#X connect 20 0 18 1;
#X connect 21 0 6 0;
#X connect 23 0 8 0;
#X connect 24 0 8 0;
#X connect 24 0 16 0;
#X connect 24 0 15 0;
